<?xml version="1.0" standalone="no"?>
<!DOCTYPE svg PUBLIC "-//W3C//DTD SVG 20010904//EN"
 "http://www.w3.org/TR/2001/REC-SVG-20010904/DTD/svg10.dtd">
<svg version="1.0" xmlns="http://www.w3.org/2000/svg"
 width="700.000000pt" height="700.000000pt" viewBox="0 0 700.000000 700.000000"
 preserveAspectRatio="xMidYMid meet">
<metadata>
Created by potrace 1.11, written by Peter Selinger 2001-2013
</metadata>
<g transform="translate(0.000000,700.000000) scale(0.100000,-0.100000)"
fill="#000000" stroke="none">
<path d="M2625 6783 l0 -218 218 -1 c119 -1 217 1 218 5 1 8 1 403 0 419 -1 9
-52 12 -219 12 l-217 0 0 -217z"/>
<path d="M1320 6120 c-4 -3 -7 -101 -6 -219 l1 -214 218 1 217 0 0 -880 c0
-758 -2 -884 -15 -906 -8 -15 -148 -328 -311 -697 -163 -368 -306 -692 -319
-720 -12 -27 -47 -106 -78 -175 -49 -111 -67 -151 -122 -275 -7 -16 -49 -111
-93 -211 -44 -99 -89 -200 -100 -225 -12 -24 -75 -168 -142 -319 -67 -151
-131 -295 -142 -320 -90 -197 -170 -388 -179 -427 -52 -222 90 -457 311 -517
48 -13 409 -15 2730 -15 2566 0 2677 1 2732 18 120 39 216 124 272 241 28 60
30 73 31 175 l0 110 -221 495 c-122 272 -396 887 -608 1365 -213 479 -396 888
-406 910 -11 22 -65 144 -121 270 -55 127 -113 257 -129 291 l-28 61 0 875 0
876 201 0 c111 0 210 1 220 1 16 1 17 18 17 219 l0 217 -1961 0 c-1078 0
-1964 -2 -1969 -5z m3051 -439 c1 -3 3 -400 4 -881 l2 -875 271 -645 c148
-355 268 -647 265 -650 -6 -6 -3253 -7 -3262 0 -4 3 25 82 65 175 39 94 115
275 169 404 53 129 102 246 108 260 6 14 11 28 12 31 1 3 6 16 12 30 6 14 47
111 91 217 l80 192 1 863 c0 475 0 868 0 874 1 12 2180 17 2182 5z"/>
<path d="M3063 5031 l0 -219 219 0 218 1 0 218 0 219 -219 0 -218 0 0 -219z"/>
<path d="M2631 4370 c-9 -7 -8 -416 1 -426 5 -4 102 -8 218 -8 180 -1 210 1
211 14 6 113 2 413 -6 418 -12 8 -413 10 -424 2z"/>
<path d="M3500 3281 l0 -220 218 2 217 2 1 218 2 217 -219 0 -219 0 0 -219z"/>
</g>
</svg>
